<?xml version="1.0" encoding="UTF-8"?>
<!-- Generator: Adobe Illustrator 18.1.0, SVG Export Plug-In . SVG Version: 6.00 Build 0)  -->
<!DOCTYPE svg PUBLIC "-//W3C//DTD SVG 1.1//EN" "http://www.w3.org/Graphics/SVG/1.1/DTD/svg11.dtd">
<svg version="1.1" id="Capa_1" xmlns="http://www.w3.org/2000/svg" xmlns:xlink="http://www.w3.org/1999/xlink" x="0px" y="0px" viewBox="0 0 243.6 68.5" enable-background="new 0 0 243.6 68.5" xml:space="preserve">
<path fill="#A73924" d="M69.8,68.5c0,0-15.5-5.8-34.9-5.8S0,68.5,0,68.5V0c0,0,12.2,6.2,33.5,6.2S69.8,0,69.8,0V68.5z"/>
<g>
	<path fill="#FFFFFF" d="M75.8,56.1V55c1.7-0.2,3-0.7,3.8-1.6c0.9-0.9,2.3-3.5,4.4-7.7l13.8-27.9h1.3L115.7,50c1.1,2.1,2,3.5,2.6,4   c0.7,0.5,1.8,0.9,3.3,1v1.1h-16.9V55c1.9-0.1,3.2-0.3,3.7-0.5c0.6-0.2,0.8-0.7,0.8-1.6c0-0.3-0.1-0.8-0.3-1.5   c-0.2-0.7-0.5-1.4-0.9-2.2l-2.7-5.5H88.1c-1.7,3.7-2.8,6-3.1,6.8c-0.3,0.8-0.5,1.5-0.5,1.9c0,1,0.5,1.6,1.4,2   c0.6,0.2,1.6,0.4,3.2,0.5v1.1H75.8z M104.4,41.5l-7.6-15.6l-7.6,15.6H104.4z"/>
	<path fill="#FFFFFF" d="M125.2,55c2.7-0.2,4.4-0.5,5.2-1c0.8-0.5,1.2-1.9,1.2-4.1V24.6c0-2.1-0.4-3.4-1.2-4c-0.8-0.6-2.5-1-5.2-1.1   v-1.1h19.6v1.1c-2.7,0.1-4.4,0.5-5.2,1.1c-0.8,0.6-1.2,1.9-1.2,4v25.3c0,2.2,0.4,3.5,1.2,4.1s2.5,0.9,5.2,1v1.1h-19.6V55z"/>
	<path fill="#FFFFFF" d="M148.3,55c2.7-0.2,4.5-0.8,5.3-1.6s1.2-2.7,1.2-5.7v-25l-0.9-0.9c-1-1-1.8-1.6-2.5-1.8   c-0.7-0.2-1.7-0.4-3.1-0.4v-1.1h11.3l25.6,27.2V26.8c0-3.1-0.5-5.1-1.6-6.1c-0.7-0.6-2.3-1-4.7-1.2v-1.1h15.6v1.1   c-2.5,0.2-4.2,0.7-5.1,1.6c-0.8,0.8-1.3,2.7-1.3,5.7v29.9H187l-29.3-31.2v22.1c0,3.1,0.5,5.1,1.6,6.1c0.7,0.6,2.2,1,4.6,1.2v1.1   h-15.6V55z"/>
	<path fill="#FFFFFF" d="M205.4,22.7c4.1-3.3,9.1-5,15.1-5c6,0,11,1.7,15.1,5.1c4.4,3.6,6.6,8.5,6.6,14.6c0,6.2-2.3,11.1-6.9,14.7   c-4.1,3.3-9.1,4.9-14.9,4.9c-6.2,0-11.4-1.8-15.5-5.4c-4.2-3.7-6.3-8.4-6.3-14.2C198.7,31.2,200.9,26.3,205.4,22.7z M210.4,50.5   c2.7,2.9,6.1,4.3,10.1,4.3c3.9,0,7.3-1.4,10-4.2c2.8-2.8,4.2-7.2,4.2-13.4c0-6.2-1.4-10.7-4.2-13.4c-2.8-2.8-6.1-4.1-10-4.1   c-4,0-7.3,1.4-10.1,4.3c-2.8,2.9-4.1,7.3-4.1,13.3C206.2,43.2,207.6,47.7,210.4,50.5z"/>
</g>
<g>
	<path fill="#FFFFFF" d="M15.1,54.2c2.6-0.2,4.3-0.6,5-1.3c0.7-0.7,1-2.2,1-4.6V23.1c0-2-0.4-3.4-1.1-4s-2.3-1.1-4.8-1.2v-1.1h18.3   c5.9,0,10.4,1,13.5,2.9c3.1,1.9,4.7,4.4,4.7,7.6c0,4-1.7,6.8-5.2,8.6c-3.5,1.8-7.8,2.7-13,2.7c-0.7,0-1.7,0-2.9,0c-1.2,0-2,0-2.6,0   V49c0,2.2,0.4,3.6,1.2,4.1c0.8,0.6,2.6,0.9,5.4,1.1v1.1H15.1V54.2z M38.6,20c-2-0.7-4.5-1.1-7.5-1.1c-1.4,0-2.3,0.1-2.6,0.4   c-0.3,0.2-0.5,0.8-0.5,1.6v15.2c1.2,0.1,2.1,0.2,2.4,0.2c0.4,0,0.8,0,1.1,0c3.2,0,5.7-0.4,7.5-1.1c3.3-1.4,5-4,5-7.8   C44.1,23.8,42.2,21.4,38.6,20z"/>
</g>
<g>
	<path fill="#FFFFFF" d="M162.6,1.8l4.7,6V3.6c0-0.6-0.1-1-0.2-1.2c-0.2-0.3-0.6-0.4-1.1-0.4V1.8h3.2V2c-0.4,0.1-0.7,0.1-0.8,0.2   c-0.1,0.1-0.2,0.2-0.3,0.4s-0.1,0.5-0.1,1v8h-0.2l-6.5-8v6.1c0,0.6,0.1,0.9,0.4,1.1c0.3,0.2,0.5,0.3,0.9,0.3h0.2v0.3h-3.4v-0.3   c0.5,0,0.9-0.1,1.1-0.3c0.2-0.2,0.3-0.6,0.3-1.1V2.9l-0.2-0.3c-0.2-0.3-0.4-0.4-0.5-0.5c-0.2-0.1-0.4-0.1-0.7-0.1V1.8H162.6z"/>
	<path fill="#FFFFFF" d="M177.9,1.6c1.5-0.1,2.8,0.4,3.7,1.3c1,0.9,1.4,2.1,1.4,3.6c0,1.2-0.4,2.3-1.1,3.2c-0.9,1.2-2.3,1.8-4,1.8   c-1.7,0-3.1-0.6-4-1.8c-0.7-0.9-1.1-2-1.1-3.3c0-1.4,0.5-2.6,1.5-3.6C175.3,2,176.5,1.6,177.9,1.6z M178,2.1c-0.9,0-1.5,0.4-2,1.3   c-0.4,0.7-0.6,1.8-0.6,3.2c0,1.6,0.3,2.8,0.9,3.6c0.4,0.5,1,0.8,1.7,0.8c0.5,0,0.9-0.1,1.2-0.4c0.4-0.3,0.7-0.8,1-1.4   c0.2-0.7,0.3-1.5,0.3-2.6c0-1.3-0.1-2.2-0.4-2.9c-0.2-0.6-0.5-1.1-0.9-1.3C178.9,2.2,178.5,2.1,178,2.1z"/>
	<path fill="#FFFFFF" d="M195.7,1.8v2.6h-0.3c-0.2-0.6-0.3-1-0.5-1.3c-0.2-0.3-0.4-0.5-0.8-0.6c-0.2-0.1-0.5-0.1-0.9-0.1h-0.7v7.4   c0,0.5,0,0.8,0.1,0.9c0.1,0.1,0.2,0.2,0.3,0.3c0.2,0.1,0.4,0.1,0.6,0.1h0.3v0.3h-5v-0.3h0.3c0.3,0,0.5,0,0.7-0.1   c0.1-0.1,0.2-0.2,0.3-0.3c0.1-0.1,0.1-0.4,0.1-0.9V2.3h-0.7c-0.6,0-1.1,0.1-1.4,0.4c-0.4,0.4-0.7,0.9-0.8,1.6H187V1.8H195.7z"/>
	<path fill="#FFFFFF" d="M204.1,8.7h-3.4l-0.4,0.9c-0.1,0.3-0.2,0.6-0.2,0.8c0,0.3,0.1,0.5,0.3,0.6c0.1,0.1,0.4,0.1,0.9,0.2v0.3   h-3.2v-0.3c0.3-0.1,0.6-0.2,0.8-0.4c0.2-0.2,0.5-0.7,0.8-1.4l3.4-7.7h0.1l3.5,7.9c0.3,0.7,0.6,1.2,0.8,1.4c0.2,0.1,0.4,0.2,0.7,0.3   v0.3h-4.6v-0.3h0.2c0.4,0,0.6-0.1,0.8-0.2c0.1-0.1,0.2-0.2,0.2-0.3c0-0.1,0-0.2,0-0.3c0,0-0.1-0.2-0.2-0.5L204.1,8.7z M203.8,8.1   l-1.4-3.3l-1.5,3.3H203.8z"/>
	<path fill="#FFFFFF" d="M215.2,7v2.7c0,0.5,0,0.8,0.1,1c0.1,0.1,0.2,0.2,0.3,0.3c0.2,0.1,0.5,0.1,0.9,0.1v0.3h-4.9v-0.3   c0.4,0,0.7,0,0.9-0.1c0.2-0.1,0.3-0.2,0.3-0.3c0.1-0.1,0.1-0.5,0.1-1V3.5c0-0.5,0-0.8-0.1-1c-0.1-0.1-0.2-0.2-0.3-0.3   c-0.2-0.1-0.5-0.1-0.9-0.1V1.8h4.5c1.2,0,2,0.1,2.5,0.2s1,0.5,1.3,0.9c0.3,0.4,0.5,0.9,0.5,1.5c0,0.7-0.3,1.3-0.8,1.8   c-0.3,0.3-0.8,0.5-1.4,0.7l2.3,3.3c0.3,0.4,0.5,0.7,0.6,0.8c0.2,0.1,0.4,0.2,0.7,0.2v0.3h-3L215.9,7H215.2z M215.2,2.3v4.2h0.4   c0.7,0,1.1-0.1,1.5-0.2c0.3-0.1,0.6-0.3,0.8-0.7s0.3-0.7,0.3-1.2c0-0.7-0.2-1.3-0.5-1.6c-0.3-0.3-0.9-0.5-1.7-0.5H215.2z"/>
	<path fill="#FFFFFF" d="M230.1,11.1v0.3h-5v-0.3h0.3c0.3,0,0.5,0,0.7-0.1c0.1-0.1,0.2-0.2,0.3-0.3c0.1-0.1,0.1-0.4,0.1-0.9V3.4   c0-0.5,0-0.8-0.1-0.9c-0.1-0.1-0.2-0.2-0.3-0.3c-0.2-0.1-0.4-0.1-0.6-0.1h-0.3V1.8h5V2h-0.3c-0.3,0-0.5,0-0.7,0.1   c-0.1,0.1-0.2,0.2-0.3,0.3c-0.1,0.1-0.1,0.4-0.1,0.9v6.3c0,0.5,0,0.8,0.1,0.9c0.1,0.1,0.2,0.2,0.3,0.3c0.2,0.1,0.4,0.1,0.6,0.1   H230.1z"/>
	<path fill="#FFFFFF" d="M239.4,8.7H236l-0.4,0.9c-0.1,0.3-0.2,0.6-0.2,0.8c0,0.3,0.1,0.5,0.3,0.6c0.1,0.1,0.4,0.1,0.9,0.2v0.3h-3.2   v-0.3c0.3-0.1,0.6-0.2,0.8-0.4c0.2-0.2,0.5-0.7,0.8-1.4l3.4-7.7h0.1l3.5,7.9c0.3,0.7,0.6,1.2,0.8,1.4c0.2,0.1,0.4,0.2,0.7,0.3v0.3   H239v-0.3h0.2c0.4,0,0.6-0.1,0.8-0.2c0.1-0.1,0.2-0.2,0.2-0.3c0-0.1,0-0.2,0-0.3c0,0-0.1-0.2-0.2-0.5L239.4,8.7z M239.1,8.1   l-1.4-3.3l-1.5,3.3H239.1z"/>
</g>
<g>
	<path fill="#FFFFFF" d="M75,9.4c0,0,1.2-0.1,3.3-0.2c2.1-0.1,5-0.3,8.6-0.4c3.6-0.1,7.7-0.2,12.2-0.3c2.2,0,4.5-0.1,6.9-0.1   c2.3,0,4.7,0,7.1,0c2.4,0,4.8,0,7.1,0c2.3,0,4.6,0.1,6.9,0.1c4.5,0.1,8.6,0.2,12.2,0.3c3.6,0.1,6.5,0.3,8.6,0.4   c2.1,0.1,3.3,0.2,3.3,0.2s-1.2,0.1-3.3,0.2c-2.1,0.1-5,0.3-8.6,0.4c-3.6,0.1-7.7,0.2-12.2,0.3c-2.2,0-4.5,0.1-6.9,0.1   c-2.3,0-4.7,0-7.1,0c-2.4,0-4.8,0-7.1,0c-2.3,0-4.6-0.1-6.9-0.1c-4.5-0.1-8.6-0.2-12.2-0.3c-3.6-0.1-6.5-0.3-8.6-0.4   C76.2,9.5,75,9.4,75,9.4z"/>
</g>
<g>
	<path fill="#FFFFFF" d="M75,64.8c0,0,2.6-0.1,7.2-0.2c4.6-0.1,11.1-0.3,18.9-0.4c7.8-0.1,17-0.3,26.8-0.3c9.8,0,20.2-0.1,30.7-0.1   c10.4,0,20.9,0.1,30.7,0.1c9.8,0,18.9,0.2,26.8,0.3c7.8,0.1,14.4,0.3,18.9,0.4c4.6,0.1,7.2,0.2,7.2,0.2s-2.6,0.1-7.2,0.2   c-4.6,0.1-11.1,0.3-18.9,0.4c-7.8,0.1-17,0.3-26.8,0.3c-9.8,0-20.2,0.1-30.7,0.1c-10.4,0-20.9-0.1-30.7-0.1   c-9.8,0-18.9-0.2-26.8-0.3c-7.8-0.1-14.4-0.3-18.9-0.4C77.6,64.9,75,64.8,75,64.8z"/>
</g>
</svg>