<?xml version="1.0" encoding="iso-8859-1"?>
<!-- Generator: Adobe Illustrator 19.0.0, SVG Export Plug-In . SVG Version: 6.00 Build 0)  -->
<svg version="1.1" id="Layer_1" xmlns="http://www.w3.org/2000/svg" xmlns:xlink="http://www.w3.org/1999/xlink" x="0px" y="0px"
	 viewBox="0 0 489.8 489.8" style="enable-background:new 0 0 489.8 489.8;" xml:space="preserve">
<g>
	<g>
		<path d="M330.6,182.6c-20.4-16.8-42.3-28.6-50.4-32.7v-29.4c4.6-4.2,7.3-10.2,7.3-16.5V67.6c0-21.3-17.4-38.7-38.7-38.7H241
			c-21.3,0-38.7,17.4-38.7,38.7v36.3c0,6.4,2.7,12.3,7.3,16.5v29.5c-8.1,4.1-30,15.9-50.4,32.7c-5.5,4.5-8.6,11.1-8.6,18.2v24.9
			c0,3.3,2.7,6,6,6s6-2.7,6-6v-24.9c0-3.5,1.5-6.8,4.2-9c22.1-18.1,46-30.2,50.5-32.4c2.6-1.3,4.3-3.9,4.3-6.8v-35c0-2-1-3.9-2.7-5
			c-2.9-1.9-4.6-5.2-4.6-8.6V67.6c0-14.7,12-26.7,26.7-26.7h7.8c14.7,0,26.7,12,26.7,26.7v36.3c0,3.5-1.7,6.7-4.6,8.6
			c-1.7,1.1-2.7,3-2.7,5v35c0,2.9,1.6,5.6,4.3,6.8c4.6,2.2,28.5,14.3,50.5,32.4c2.7,2.2,4.2,5.5,4.2,9v24.9c0,3.4,2.7,6.1,6,6.1
			s6-2.7,6-6v-24.9C339.2,193.7,336.1,187,330.6,182.6z"/>
	</g>
</g>
<g>
	<g>
		<path d="M481.2,411.8c-20.4-16.8-42.3-28.6-50.4-32.7v-29.4c4.6-4.2,7.3-10.2,7.3-16.5v-36.3c0-21.3-17.4-38.7-38.7-38.7h-7.8
			c-21.3,0-38.7,17.4-38.7,38.7v36.3c0,6.4,2.7,12.3,7.3,16.5v29.4c-8.1,4.1-30,15.9-50.4,32.7c-5.5,4.5-8.6,11.1-8.6,18.2v24.9
			c0,3.3,2.7,6,6,6s6-2.7,6-6V430c0-3.5,1.5-6.8,4.2-9c22-18.1,46-30.2,50.5-32.4c2.6-1.3,4.3-3.9,4.3-6.8v-35c0-2-1-3.9-2.7-5
			c-2.9-1.9-4.6-5.2-4.6-8.6v-36.3c0-14.7,12-26.7,26.7-26.7h7.8c14.7,0,26.7,12,26.7,26.7v36.3c0,3.5-1.7,6.7-4.6,8.6
			c-1.7,1.1-2.7,3-2.7,5v35c0,2.9,1.6,5.6,4.3,6.8c4.6,2.2,28.5,14.3,50.5,32.4c2.7,2.2,4.2,5.5,4.2,9v24.9c0,3.3,2.7,6,6,6
			s6-2.7,6-6V430C489.8,422.9,486.6,416.3,481.2,411.8z"/>
	</g>
</g>
<g>
	<g>
		<path d="M180,411.8c-20.4-16.8-42.3-28.6-50.4-32.7v-29.4c4.6-4.2,7.3-10.2,7.3-16.5v-36.3c0-21.3-17.4-38.7-38.7-38.7h-7.8
			c-21.3,0-38.7,17.4-38.7,38.7v36.3c0,6.4,2.7,12.3,7.3,16.5v29.4c-8.1,4.1-30,15.9-50.4,32.7C3.1,416.3,0,422.9,0,430v24.9
			c0,3.3,2.7,6,6,6c3.3,0,6-2.7,6-6V430h0c0-3.5,1.5-6.8,4.2-9c22-18.1,46-30.2,50.5-32.4c2.6-1.3,4.3-3.9,4.3-6.8v-35
			c0-2-1-3.9-2.7-5c-2.9-1.9-4.6-5.2-4.6-8.6v-36.3c0-14.7,12-26.7,26.7-26.7h7.8c14.7,0,26.7,12,26.7,26.7v36.3
			c0,3.5-1.7,6.7-4.6,8.6c-1.7,1.1-2.7,3-2.7,5v35c0,2.9,1.6,5.6,4.3,6.8c4.6,2.2,28.5,14.3,50.5,32.4c2.7,2.2,4.2,5.5,4.2,9v24.9
			c0,3.3,2.7,6,6,6s6-2.7,6-6V430C188.6,422.9,185.5,416.3,180,411.8z"/>
	</g>
</g>
<g>
	<g>
		<path d="M310.1,334.8l-58.4-33.7v-67.5c0-3.3-2.7-6-6-6c-3.3,0-6,2.7-6,6v67.5l-58.4,33.7c-2.9,1.7-3.9,5.3-2.2,8.2
			c1.1,1.9,3.1,3,5.2,3c1,0,2-0.3,3-0.8l58.4-33.7l58.4,33.7c0.9,0.5,2,0.8,3,0.8c2.1,0,4.1-1.1,5.2-3
			C314,340.1,313,336.5,310.1,334.8z"/>
	</g>
</g>
<g>
</g>
<g>
</g>
<g>
</g>
<g>
</g>
<g>
</g>
<g>
</g>
<g>
</g>
<g>
</g>
<g>
</g>
<g>
</g>
<g>
</g>
<g>
</g>
<g>
</g>
<g>
</g>
<g>
</g>
</svg>
