<?xml version="1.0" encoding="iso-8859-1"?>
<!-- Generator: Adobe Illustrator 19.0.0, SVG Export Plug-In . SVG Version: 6.00 Build 0)  -->
<svg version="1.1" id="Layer_1" xmlns="http://www.w3.org/2000/svg" xmlns:xlink="http://www.w3.org/1999/xlink" x="0px" y="0px"
	 viewBox="0 0 489.4 489.4" style="enable-background:new 0 0 489.4 489.4;" xml:space="preserve">
<g>
	<g>
		<path d="M289.7,120.5h-89c-3.3,0-6,2.7-6,6c0,3.3,2.7,6,6,6h89c3.3,0,6-2.7,6-6C295.7,123.2,293,120.5,289.7,120.5z"/>
	</g>
</g>
<g>
	<g>
		<path d="M483.4,258.5h-90.9l-11.3-62.4c-2.2-11.9-12.6-20.6-24.7-20.6h-15.6L333.8,57c-1.2-20.2-18-36.1-38.3-36.1H193.8
			c-20.3,0-37.1,15.8-38.3,36.1l-7.1,118.5h-15.6c-12.1,0-22.5,8.7-24.7,20.6l-11.2,62.4H6c-3.3,0-6,2.7-6,6s2.7,6,6,6h25.4v41.1
			c0,3.3,2.7,6,6,6h26.3v143.2c0,3.3,2.7,6,6,6h31.9c3.3,0,6-2.7,6-6s-2.7-6-6-6H75.7V317.6h338v137.2h-25.9c-3.3,0-6,2.7-6,6
			s2.7,6,6,6h31.9c3.3,0,6-2.7,6-6V317.6H452c3.3,0,6-2.7,6-6v-41.1h25.4c3.3,0,6-2.7,6-6S486.7,258.5,483.4,258.5z M356.5,187.6
			c6.3,0,11.8,4.5,12.9,10.8l10.9,60.2h-34.4l-4.2-71H356.5z M167.5,57.7c0.8-13.9,12.4-24.8,26.3-24.8h101.8
			c13.9,0,25.5,10.9,26.3,24.8l12,200.8H155.5L167.5,57.7z M120,198.3c1.1-6.2,6.5-10.8,12.9-10.8h14.8l-4.2,71h-34.4L120,198.3z
			 M43.4,305.6v-35.1h58.5h285.5h58.5v35.1H43.4z"/>
	</g>
</g>
<g>
	<g>
		<path d="M348.7,355.5h-207c-3.3,0-6,2.7-6,6s2.7,6,6,6h97v40.1L190.3,456c-2.3,2.3-2.3,6.1,0,8.5c1.2,1.2,2.7,1.8,4.2,1.8
			s3.1-0.6,4.2-1.8l40-40v38c0,3.3,2.7,6,6,6s6-2.7,6-6v-37.7l39.6,39.6c1.2,1.2,2.7,1.8,4.2,1.8s3.1-0.6,4.2-1.8
			c2.3-2.3,2.3-6.1,0-8.5l-48-48v-40.4h98c3.3,0,6-2.7,6-6S352,355.5,348.7,355.5z"/>
	</g>
</g>
<g>
</g>
<g>
</g>
<g>
</g>
<g>
</g>
<g>
</g>
<g>
</g>
<g>
</g>
<g>
</g>
<g>
</g>
<g>
</g>
<g>
</g>
<g>
</g>
<g>
</g>
<g>
</g>
<g>
</g>
</svg>
