<?xml version="1.0" encoding="iso-8859-1"?>
<!-- Generator: Adobe Illustrator 19.0.0, SVG Export Plug-In . SVG Version: 6.00 Build 0)  -->
<svg version="1.1" id="Layer_1" xmlns="http://www.w3.org/2000/svg" xmlns:xlink="http://www.w3.org/1999/xlink" x="0px" y="0px"
	 viewBox="0 0 489.808 489.808" style="enable-background:new 0 0 489.808 489.808;" xml:space="preserve">
<g>
	<g>
		<path d="M489.008,417.654l-46.8-94.8v-253.8c0-3.3-2.7-6-6-6h-382.2c-3.3,0-6,2.7-6,6v253.8l-47.4,95.3c-0.9,1.9-0.8,4.1,0.3,5.8
			c1.1,1.7,3,2.8,5.1,2.8h477.8c3.3,0,6-2.7,6-6C489.808,419.654,489.508,418.554,489.008,417.654z M60.007,75.054h370.1v243.2
			h-370.1V75.054z M178.308,411.054l9.4-18.8h114.6l9.3,18.8H178.308z M326.808,414.854c-0.1-0.3-0.2-0.6-0.4-0.8l-15-30.4
			c-1-2-3.1-3.3-5.4-3.3h-122c-2.3,0-4.4,1.3-5.4,3.3l-15.3,30.8c-0.1,0.1-0.1,0.3-0.2,0.4h-147.4l42.1-84.5h374.7l41.7,84.5
			H326.808z"/>
	</g>
</g>
<g>
</g>
<g>
</g>
<g>
</g>
<g>
</g>
<g>
</g>
<g>
</g>
<g>
</g>
<g>
</g>
<g>
</g>
<g>
</g>
<g>
</g>
<g>
</g>
<g>
</g>
<g>
</g>
<g>
</g>
</svg>
